<?xml version="1.0" standalone="no"?>
<!DOCTYPE svg PUBLIC "-//W3C//DTD SVG 20010904//EN"
 "http://www.w3.org/TR/2001/REC-SVG-20010904/DTD/svg10.dtd">
<svg version="1.0" xmlns="http://www.w3.org/2000/svg"
 width="16.000000pt" height="16.000000pt" viewBox="0 0 16.000000 16.000000"
 preserveAspectRatio="xMidYMid meet">
<metadata>
Created by potrace 1.11, written by Peter Selinger 2001-2013
</metadata>
<g transform="translate(0.000000,16.000000) scale(0.002632,-0.002632)"
fill="#000000" stroke="none">
<path d="M0 3035 l0 -3035 3040 0 3040 0 0 3035 0 3035 -3040 0 -3040 0 0
-3035z m5545 2037 c105 -42 168 -130 133 -184 -8 -13 -18 -35 -22 -50 -12 -50
-191 -161 -293 -183 -29 -6 -33 -4 -33 14 0 34 -17 25 -49 -27 -16 -27 -255
-62 -422 -62 l-67 0 -82 -87 c-139 -146 -252 -301 -417 -568 -128 -207 -210
-353 -473 -840 -62 -115 -159 -296 -187 -351 -24 -47 -30 -52 -67 -57 -37 -5
-66 -27 -66 -50 0 -5 16 -6 35 -3 19 4 35 5 35 2 0 -7 -29 -58 -139 -243 -78
-133 -100 -163 -118 -163 -12 0 -27 8 -33 18 -9 16 -11 16 -22 -3 -6 -10 -25
-31 -41 -46 -23 -21 -27 -31 -19 -45 8 -14 5 -22 -12 -35 -18 -16 -19 -18 -3
-19 9 0 17 -6 17 -14 0 -8 6 -16 13 -19 15 -5 -2 -40 -44 -89 -23 -28 -27 -30
-22 -11 6 26 4 27 -31 13 -18 -7 -26 -17 -26 -34 0 -24 -52 -74 -92 -89 -18
-6 -25 -27 -10 -27 4 0 7 -24 7 -53 0 -48 -4 -57 -56 -122 -104 -130 -130
-150 -108 -86 6 17 8 47 5 65 -6 30 -11 34 -42 38 -31 4 -37 1 -46 -21 -6 -17
-6 -27 1 -29 17 -6 13 -37 -7 -62 -19 -23 -19 -23 -38 -4 -26 26 -26 101 -1
116 21 11 16 55 -10 95 -8 12 -12 27 -8 33 7 11 -35 31 -48 23 -5 -3 -6 -14
-4 -25 3 -11 1 -29 -6 -39 -9 -15 -7 -22 11 -42 28 -30 28 -41 -3 -61 -39 -26
-35 -76 10 -110 19 -15 35 -33 35 -40 0 -6 -14 -31 -30 -53 -34 -45 -27 -61
15 -39 35 19 45 33 45 72 0 22 7 34 24 43 30 17 65 0 63 -29 -2 -24 -203 -224
-317 -316 -242 -195 -502 -325 -770 -385 -117 -27 -472 -40 -510 -19 l-23 12
24 19 c13 10 30 19 37 19 6 0 12 6 12 14 0 8 14 23 30 33 17 9 30 25 30 34 0
9 7 22 15 29 14 12 10 17 -32 44 l-47 31 80 7 c94 8 184 30 261 63 30 14 59
23 63 20 5 -3 19 5 32 18 13 13 46 39 73 57 99 65 210 166 346 315 96 105 352
461 438 609 24 42 51 85 137 216 27 41 51 80 53 85 2 6 75 131 163 278 87 148
158 270 158 272 0 7 245 418 313 525 221 350 515 761 542 759 6 0 4 -3 -2 -6
-14 -5 -18 -39 -5 -47 22 -13 73 65 80 120 4 40 16 55 125 169 66 69 118 127
116 129 -2 1 -69 11 -149 20 -80 10 -208 28 -285 42 -150 26 -319 49 -452 60
-60 5 -83 10 -83 20 0 17 -12 18 -27 3 -6 -6 -59 -17 -119 -25 -60 -7 -119
-16 -132 -19 -20 -5 -22 -3 -16 21 6 23 4 26 -10 21 -10 -4 -23 -7 -30 -7 -6
0 -19 -13 -29 -29 -12 -21 -29 -32 -63 -40 -26 -7 -75 -25 -111 -41 -35 -16
-71 -26 -79 -23 -10 4 -17 -2 -21 -16 -3 -11 -22 -31 -42 -43 -20 -12 -82 -67
-139 -122 -81 -79 -102 -95 -97 -74 6 22 3 27 -17 30 -19 3 -23 8 -20 36 3 26
-4 41 -38 79 -34 39 -41 53 -36 75 4 22 2 28 -12 28 -26 0 -55 56 -41 82 12
23 13 22 -28 36 -29 10 -33 8 -48 -15 -14 -21 -15 -27 -4 -35 11 -7 11 -11 2
-15 -16 -6 -17 -40 -1 -45 17 -6 0 -28 -22 -28 -10 0 -21 -8 -24 -18 -3 -10
-19 -25 -35 -35 -29 -17 -33 -24 -45 -78 -4 -21 -2 -26 11 -25 8 0 18 -5 20
-11 3 -10 -11 -13 -51 -13 -55 0 -56 0 -75 -40 l-19 -41 23 -25 c32 -35 67
-29 76 12 8 42 17 54 40 54 10 0 19 7 19 15 0 8 4 15 10 15 5 0 7 7 4 15 -9
23 32 19 49 -5 12 -17 18 -18 48 -8 19 6 46 17 61 24 34 18 38 18 38 -5 0 -11
5 -23 10 -26 16 -10 12 -21 -15 -35 -27 -15 -25 -31 4 -23 10 3 22 0 25 -6 4
-6 16 -11 27 -11 13 0 19 -7 19 -24 0 -31 -40 -107 -60 -113 -48 -15 -59 -25
-47 -45 10 -16 7 -22 -21 -45 -48 -37 -57 -68 -31 -104 l21 -30 -28 -25 c-15
-14 -23 -29 -18 -32 5 -4 15 -19 23 -34 8 -16 18 -28 23 -28 4 0 8 -13 8 -30
0 -23 -4 -30 -20 -30 -13 0 -24 -10 -30 -25 -5 -14 -14 -25 -21 -25 -26 0 1
-25 31 -30 28 -4 36 -11 46 -40 46 -143 61 -181 91 -231 41 -69 123 -148 184
-179 59 -30 58 -28 24 -57 -127 -105 -127 -105 -168 -99 -191 31 -454 254
-567 481 -21 41 -26 61 -18 64 7 2 14 -1 16 -7 2 -7 16 -12 30 -12 15 0 36 -7
47 -16 17 -12 18 -17 7 -35 -7 -11 -10 -24 -7 -29 3 -4 0 -10 -7 -12 -26 -9 6
-28 46 -28 30 0 48 6 61 20 10 11 28 19 41 18 20 -2 24 -8 24 -35 0 -22 5 -33
14 -33 8 0 16 -7 20 -15 8 -23 39 -19 33 4 -2 10 0 26 5 35 6 10 5 16 -2 16
-5 0 -10 6 -10 13 0 6 -14 20 -30 29 -27 15 -34 31 -33 74 0 7 -18 12 -45 12
-67 2 -72 16 -10 32 18 5 43 12 56 15 16 6 22 3 22 -8 0 -14 4 -14 32 -3 42
18 45 29 13 55 -15 11 -24 25 -21 30 12 18 17 151 7 151 -5 0 -13 -4 -16 -10
-3 -5 -14 -14 -25 -20 -15 -8 -17 -7 -13 10 6 21 -13 28 -74 29 -18 1 -46 2
-63 4 -16 2 -41 4 -54 5 -17 1 -26 9 -28 24 -3 21 -5 21 -38 -13 -39 -38 -44
-67 -17 -87 15 -12 22 -11 42 2 52 34 62 7 14 -38 -23 -22 -29 -35 -25 -52 5
-17 1 -27 -14 -36 -11 -7 -20 -24 -20 -38 l0 -25 -13 25 c-7 14 -19 45 -26 68
-11 40 -11 45 6 57 17 13 17 14 -3 9 -20 -5 -23 0 -32 58 -6 34 -14 104 -18
154 -11 148 30 343 102 486 30 60 43 67 66 38 21 -26 38 -19 21 10 -10 14 -9
21 2 30 8 7 15 29 15 49 0 56 88 157 225 255 111 80 216 125 165 71 -13 -14
-20 -28 -17 -32 4 -3 0 -14 -9 -24 -15 -17 -15 -20 5 -47 15 -22 17 -32 9 -40
-20 -20 -1 -24 29 -8 56 31 75 53 64 75 -6 11 -11 29 -11 40 0 11 -8 24 -17
30 -17 9 -16 12 6 35 28 29 43 32 60 12 8 -10 9 -16 1 -21 -5 -3 -10 -11 -10
-16 0 -5 10 -3 23 5 47 31 84 -4 57 -55 -9 -15 -7 -23 5 -36 9 -9 15 -26 13
-38 -4 -18 -1 -21 14 -17 10 2 24 -2 31 -11 15 -19 63 -12 72 11 6 17 -13 34
-33 27 -16 -6 -2 21 28 53 17 18 19 27 11 35 -6 6 -11 19 -11 29 0 11 -7 18
-20 18 -11 0 -30 11 -42 25 -15 18 -32 25 -57 26 l-36 0 39 15 c21 8 57 13 80
13 23 -1 59 3 81 9 82 23 339 11 532 -25 65 -11 90 -20 83 -28 -10 -12 23 -95
39 -95 16 0 24 40 11 55 -7 8 -10 21 -7 29 7 18 43 10 51 -11 5 -13 9 -13 22
-2 12 10 25 10 62 1 26 -6 157 -36 292 -67 381 -86 364 -80 355 -127 -3 -15
-8 -41 -11 -58 -3 -18 -1 -30 5 -30 6 0 11 8 11 18 0 9 9 28 20 42 11 14 20
30 20 37 0 21 17 23 91 13 80 -11 91 -16 69 -30 -13 -8 -13 -12 3 -27 16 -16
17 -16 17 16 0 31 2 33 28 26 44 -11 198 -7 243 6 22 7 43 19 46 26 3 8 14 11
27 7 17 -4 25 1 34 20 8 19 42 41 121 80 153 76 151 75 151 32 0 -20 3 -36 8
-36 11 0 62 67 62 82 0 20 74 42 240 72 14 2 88 3 165 1 111 -2 150 -7 190
-23z m-3342 -1012 c-3 -11 -9 -20 -14 -20 -10 0 -12 24 -2 33 13 13 21 7 16
-13z m-455 -1015 c4 -4 1 -10 -5 -12 -7 -3 -13 -11 -13 -19 0 -8 -7 -17 -15
-20 -8 -4 -12 -10 -9 -15 7 -13 44 9 44 26 0 7 8 15 18 18 30 6 70 -21 97 -68
94 -159 -26 -434 -246 -567 -161 -97 -355 -104 -424 -14 -42 56 -53 158 -28
265 6 23 4 22 -32 -10 -129 -115 -212 -224 -289 -377 -33 -65 -38 -71 -56 -62
-11 6 -20 17 -20 25 0 8 -9 19 -20 25 -17 9 -20 8 -20 -14 0 -13 -9 -34 -20
-47 l-19 -24 -25 30 c-18 22 -28 27 -36 19 -8 -8 -7 -21 6 -48 20 -40 26 -43
44 -21 18 22 35 19 54 -10 11 -16 22 -22 33 -18 12 5 15 2 10 -13 -62 -201
-70 -247 -72 -429 -3 -211 -13 -247 -77 -278 -27 -13 -38 -25 -38 -41 0 -12
-9 -39 -20 -61 -14 -28 -17 -42 -9 -52 13 -15 -8 -27 -38 -21 -22 4 -56 94
-85 227 -18 82 -19 98 -7 134 10 31 11 41 1 45 -32 10 -2 254 54 442 25 82 29
90 53 91 22 2 23 2 5 6 -22 4 -22 5 -6 46 83 215 283 483 462 622 81 63 208
137 236 139 13 0 24 4 24 8 0 9 88 48 110 48 24 0 54 -36 46 -55 -5 -13 -1
-15 15 -10 12 4 29 8 38 9 10 2 18 16 21 41 4 33 9 38 34 41 15 2 31 6 35 10
8 8 180 -1 189 -11z m1550 -877 c-5 -16 -48 -24 -48 -10 0 11 17 20 38 21 8 1
12 -5 10 -11z m-2435 -988 c9 -11 13 -20 7 -20 -5 0 -14 9 -20 20 -6 11 -9 20
-8 20 2 0 11 -9 21 -20z m-258 -35 c36 -34 37 -37 19 -50 -27 -20 -30 -19 -59
22 -47 70 -22 86 40 28z m370 -54 c37 -22 88 -45 114 -51 25 -6 55 -18 66 -26
20 -15 20 -15 -4 -33 -13 -10 -21 -23 -17 -30 10 -15 56 -14 56 1 0 9 3 9 12
0 9 -9 8 -21 -2 -52 -7 -22 -17 -40 -21 -40 -4 0 -9 -17 -11 -37 l-3 -38 -55
2 c-62 3 -205 48 -223 70 -7 8 -22 24 -34 35 -16 15 -20 25 -13 37 5 10 5 23
-1 32 -15 24 -10 38 20 53 24 13 30 24 36 66 4 27 8 50 10 50 1 0 33 -18 70
-39z"/>
<path d="M5300 4930 c-6 -11 -17 -20 -25 -20 -20 0 -65 -44 -65 -63 0 -9 5
-19 10 -22 6 -3 10 -17 10 -31 0 -21 4 -25 23 -22 20 3 22 8 19 48 -3 45 -3
45 45 70 71 36 80 60 23 60 -19 0 -33 -7 -40 -20z"/>
<path d="M2802 4868 c2 -12 8 -23 14 -25 17 -6 27 29 12 39 -22 13 -30 9 -26
-14z"/>
<path d="M4887 4873 c-10 -9 -8 -33 2 -33 5 0 11 9 14 20 5 20 -3 26 -16 13z"/>
<path d="M2555 4780 c-3 -5 1 -10 9 -10 8 0 18 5 21 10 3 6 -1 10 -9 10 -8 0
-18 -4 -21 -10z"/>
<path d="M4333 4751 c-7 -12 -13 -29 -13 -38 0 -16 1 -16 16 -1 9 8 14 25 12
37 -3 22 -3 22 -15 2z"/>
<path d="M3933 4753 c-7 -2 -13 -11 -13 -18 0 -7 6 -15 13 -18 7 -3 12 4 12
19 0 13 0 24 0 23 0 0 -6 -3 -12 -6z"/>
<path d="M4170 4720 c0 -5 5 -10 10 -10 6 0 10 5 10 10 0 6 -4 10 -10 10 -5 0
-10 -4 -10 -10z"/>
<path d="M1970 4704 c-14 -7 -29 -15 -35 -17 -5 -3 -7 -7 -3 -11 7 -8 63 18
73 34 8 13 -4 11 -35 -6z"/>
<path d="M4155 4639 c-8 -23 -1 -34 14 -24 13 8 15 45 2 45 -5 0 -13 -9 -16
-21z"/>
<path d="M4350 4570 c0 -10 6 -23 13 -27 8 -4 16 -16 20 -25 4 -11 17 -18 31
-18 24 0 24 0 9 33 -25 50 -35 60 -44 45 -7 -10 -9 -10 -9 0 0 6 -4 12 -10 12
-5 0 -10 -9 -10 -20z"/>
<path d="M4310 4389 c0 -11 4 -18 9 -14 5 3 13 1 16 -5 5 -8 11 -7 21 1 14 12
9 33 -6 24 -5 -3 -11 -1 -15 5 -11 17 -25 11 -25 -11z"/>
<path d="M1994 4305 c-16 -12 -16 -14 -3 -15 9 0 22 7 29 15 16 19 0 19 -26 0z"/>
<path d="M4337 4293 c-4 -3 -7 -11 -7 -17 0 -6 5 -5 12 2 6 6 9 14 7 17 -3 3
-9 2 -12 -2z"/>
<path d="M3935 4141 c-3 -6 3 -15 14 -20 27 -15 31 -14 31 9 0 21 -33 29 -45
11z"/>
<path d="M3880 4045 c0 -14 5 -24 12 -22 7 1 14 -8 16 -20 3 -20 6 -21 24 -12
11 6 17 13 14 16 -3 4 0 13 7 21 10 13 9 15 -6 9 -14 -5 -20 -2 -24 13 -8 30
-43 26 -43 -5z"/>
<path d="M3993 4051 c-8 -13 -9 -22 -3 -26 11 -7 24 18 18 35 -2 6 -9 1 -15
-9z"/>
<path d="M1697 4023 c-13 -12 -7 -63 7 -63 9 0 13 10 11 30 -2 33 -8 44 -18
33z"/>
<path d="M3758 4004 c-3 -5 -4 -33 -3 -61 1 -40 6 -58 23 -73 32 -30 45 -26
38 13 -4 17 -8 43 -10 55 -1 13 -7 27 -13 30 -5 4 -14 15 -20 26 -6 10 -12 15
-15 10z"/>
<path d="M1872 3943 c4 -24 24 -27 24 -3 0 11 -6 20 -14 20 -7 0 -12 -8 -10
-17z"/>
<path d="M3737 3684 c-47 -45 -77 -91 -77 -116 0 -16 47 39 60 70 6 13 24 29
40 35 21 8 30 18 30 34 0 13 -1 23 -3 23 -2 0 -24 -21 -50 -46z"/>
<path d="M3983 3664 c-3 -8 -1 -20 6 -27 14 -14 47 15 37 32 -10 16 -36 13
-43 -5z"/>
<path d="M3940 3596 c0 -9 7 -16 16 -16 17 0 14 22 -4 28 -7 2 -12 -3 -12 -12z"/>
<path d="M3872 3583 c-17 -30 -15 -33 13 -33 14 0 25 5 25 10 0 6 -4 10 -9 10
-5 0 -11 8 -13 18 -3 15 -5 14 -16 -5z"/>
<path d="M3747 3483 c-12 -11 -8 -23 8 -23 8 0 15 7 15 15 0 16 -12 20 -23 8z"/>
<path d="M2175 3420 c3 -5 8 -10 11 -10 2 0 4 5 4 10 0 6 -5 10 -11 10 -5 0
-7 -4 -4 -10z"/>
<path d="M2100 3235 c-7 -9 -10 -18 -7 -21 10 -11 37 5 37 21 0 19 -14 19 -30
0z"/>
<path d="M3652 2942 c2 -11 -3 -26 -11 -35 -7 -9 -11 -24 -7 -32 5 -14 9 -14
31 2 27 20 31 40 11 66 -17 22 -28 22 -24 -1z"/>
<path d="M3550 2710 c0 -5 5 -10 10 -10 6 0 10 5 10 10 0 6 -4 10 -10 10 -5 0
-10 -4 -10 -10z"/>
<path d="M2892 2463 c4 -39 28 -42 28 -4 0 21 -5 31 -16 31 -11 0 -14 -8 -12
-27z"/>
<path d="M3306 2468 c-8 -33 -8 -38 7 -38 13 0 38 46 29 55 -12 12 -30 4 -36
-17z"/>
<path d="M3210 2311 c0 -6 5 -13 10 -16 6 -3 10 1 10 9 0 9 -4 16 -10 16 -5 0
-10 -4 -10 -9z"/>
<path d="M2990 2263 c0 -16 11 -46 24 -68 23 -37 23 -41 8 -58 -15 -17 -15
-19 1 -28 9 -6 17 -22 17 -36 0 -22 2 -24 15 -13 9 8 13 21 9 32 -4 13 2 28
17 44 20 21 21 24 4 24 -15 0 -17 6 -12 41 5 35 2 41 -17 49 -12 4 -28 15 -35
24 -20 24 -31 20 -31 -11z"/>
<path d="M3110 2085 c0 -19 5 -26 17 -23 25 5 27 25 4 38 -19 10 -21 8 -21
-15z"/>
<path d="M2683 1950 c-12 -10 -32 -16 -45 -13 -13 2 -31 -2 -41 -9 -16 -12
-16 -15 9 -50 15 -21 35 -38 44 -38 24 0 43 26 37 50 -4 14 2 25 19 36 13 9
24 20 24 24 0 17 -27 17 -47 0z"/>
<path d="M2271 1561 c-9 -6 -11 -18 -7 -35 11 -46 46 -27 46 25 0 20 -16 24
-39 10z"/>
<path d="M1540 1016 c0 -2 7 -6 15 -10 8 -3 15 -1 15 4 0 6 -7 10 -15 10 -8 0
-15 -2 -15 -4z"/>
<path d="M1617 3018 c-7 -5 -2 -8 15 -8 14 0 28 -5 30 -12 5 -13 38 -4 38 11
0 12 -67 19 -83 9z"/>
<path d="M1542 3008 c-9 -9 -9 -15 0 -25 9 -11 7 -18 -5 -30 -14 -14 -14 -19
-2 -43 14 -27 45 -48 45 -31 0 5 -6 11 -12 14 -16 5 7 37 27 37 7 0 18 7 25
15 16 20 5 19 -31 -2 -40 -24 -50 -7 -14 22 29 24 29 25 11 40 -24 18 -29 18
-44 3z"/>
<path d="M1335 2931 c-34 -15 -43 -26 -58 -69 -14 -41 -15 -55 -6 -70 16 -25
4 -56 -18 -48 -15 6 -32 -8 -33 -26 0 -15 33 -8 46 10 13 16 16 15 43 -17 36
-41 56 -34 46 18 -4 20 -7 42 -6 49 0 6 1 20 1 30 0 67 3 87 17 108 21 33 15
36 -32 15z"/>
<path d="M1184 2639 c-18 -20 -18 -21 -1 -34 18 -13 18 -15 1 -47 -17 -33 -17
-33 3 -15 24 21 43 22 43 1 0 -8 6 -22 14 -30 8 -7 12 -23 9 -34 -8 -32 22
-25 61 15 l36 35 -19 30 c-16 27 -19 28 -37 15 -10 -8 -26 -14 -34 -14 -12 0
-12 2 3 13 24 18 21 33 -10 61 -34 30 -45 31 -69 4z"/>
<path d="M755 2510 l-30 -20 25 0 c34 0 58 16 45 29 -7 7 -20 4 -40 -9z"/>
<path d="M1320 2490 c0 -16 64 -39 72 -26 17 25 7 36 -32 36 -22 0 -40 -4 -40
-10z"/>
<path d="M755 2279 c-12 -19 5 -23 22 -6 16 16 16 17 1 17 -9 0 -20 -5 -23
-11z"/>
<path d="M656 2075 c-20 -31 -6 -33 40 -4 41 25 42 29 5 29 -20 0 -34 -8 -45
-25z"/>
<path d="M482 1953 c2 -10 13 -19 26 -21 17 -3 22 2 22 17 0 16 -6 21 -26 21
-19 0 -25 -5 -22 -17z"/>
<path d="M530 1826 c0 -8 3 -22 6 -31 6 -14 8 -14 25 1 14 13 16 20 8 31 -15
17 -39 17 -39 -1z"/>
<path d="M1048 859 c-24 -13 -23 -29 2 -29 13 0 20 7 20 20 0 23 1 23 -22 9z"/>
</g>
</svg>
